<svg width="284" height="281" viewBox="0 0 284 281" fill="none" xmlns="http://www.w3.org/2000/svg">
<g filter="url(#filter0_d_0_1)">
<ellipse cx="142" cy="140.5" rx="62" ry="60.5" fill="#454545" fill-opacity="0.5" shape-rendering="crispEdges"/>
</g>
<path d="M141.765 190.723V193.223H141.765L141.765 190.723ZM91.5742 140.533H89.0742V140.533L91.5742 140.533ZM139.774 90.3828L140.875 92.6276L139.677 87.8847L139.774 90.3828ZM117.3 126.409L114.8 126.409V126.409L117.3 126.409ZM157.401 166.511L157.401 169.011H157.401V166.511ZM191.464 147.577L193.94 147.925L189.342 146.256L191.464 147.577ZM141.765 190.723V188.223C115.426 188.223 94.0745 166.871 94.0742 140.533L91.5742 140.533L89.0742 140.533C89.0745 169.633 112.665 193.223 141.765 193.223V190.723ZM91.5742 140.533H94.0742C94.0742 114.829 114.412 93.8736 139.872 92.8809L139.774 90.3828L139.677 87.8847C111.544 88.9816 89.0742 112.132 89.0742 140.533H91.5742ZM139.774 90.3828L138.674 88.138C124.541 95.0661 114.8 109.596 114.8 126.409L117.3 126.409L119.8 126.409C119.8 111.577 128.389 98.7484 140.875 92.6276L139.774 90.3828ZM117.3 126.409L114.8 126.409C114.8 149.937 133.873 169.011 157.401 169.011L157.401 166.511L157.401 164.011C136.635 164.011 119.8 147.176 119.8 126.409L117.3 126.409ZM157.401 166.511V169.011C172.677 169.011 186.07 160.967 193.586 148.899L191.464 147.577L189.342 146.256C182.7 156.92 170.878 164.011 157.401 164.011V166.511ZM191.464 147.577L188.988 147.229C185.734 170.396 165.829 188.223 141.765 188.223L141.765 190.723L141.765 193.223C168.357 193.222 190.344 173.526 193.94 147.925L191.464 147.577Z" fill="white"/>
<path d="M153.41 127.639C149.476 123.676 144.224 121.322 138.669 121.031C133.114 120.74 127.649 122.532 123.328 126.063C119.008 129.594 116.138 134.612 115.274 140.15C114.409 145.687 115.61 151.351 118.646 156.048L134.288 180.246C134.636 180.785 135.112 181.227 135.673 181.533C136.234 181.84 136.861 182 137.499 182C138.137 182 138.764 181.84 139.325 181.533C139.886 181.227 140.362 180.785 140.71 180.246L156.352 156.048C159.169 151.691 160.414 146.49 159.878 141.318C159.343 136.146 157.059 131.316 153.41 127.639ZM152.884 153.771L137.499 177.57L122.114 153.771C117.405 146.486 118.415 136.737 124.516 130.589C126.221 128.871 128.245 127.508 130.473 126.578C132.7 125.648 135.088 125.17 137.499 125.17C139.91 125.17 142.298 125.648 144.526 126.578C146.753 127.508 148.777 128.871 150.482 130.589C156.583 136.737 157.593 146.486 152.884 153.771Z" fill="#6188DB"/>
<path d="M138 135C136.418 135 134.871 135.499 133.555 136.433C132.24 137.366 131.214 138.694 130.609 140.247C130.003 141.8 129.845 143.509 130.154 145.158C130.462 146.807 131.224 148.322 132.343 149.51C133.462 150.699 134.887 151.509 136.439 151.837C137.991 152.165 139.6 151.996 141.061 151.353C142.523 150.71 143.773 149.62 144.652 148.222C145.531 146.825 146 145.181 146 143.5C145.998 141.246 145.154 139.086 143.654 137.492C142.154 135.899 140.121 135.003 138 135ZM138 147.75C137.209 147.75 136.436 147.501 135.778 147.034C135.12 146.567 134.607 145.903 134.304 145.126C134.002 144.35 133.923 143.495 134.077 142.671C134.231 141.846 134.612 141.089 135.172 140.495C135.731 139.9 136.444 139.496 137.22 139.332C137.996 139.168 138.8 139.252 139.531 139.574C140.262 139.895 140.886 140.44 141.326 141.139C141.765 141.838 142 142.659 142 143.5C141.999 144.627 141.577 145.707 140.827 146.504C140.077 147.301 139.06 147.749 138 147.75Z" fill="#6188DB" stroke="#6188DB" stroke-width="1.38596"/>
<g filter="url(#filter1_d_0_1)">
<ellipse cx="142" cy="140.5" rx="62" ry="60.5" fill="#454545" fill-opacity="0.5" shape-rendering="crispEdges"/>
</g>
<path d="M141.765 190.723V193.223H141.765L141.765 190.723ZM91.5742 140.533H89.0742V140.533L91.5742 140.533ZM139.774 90.3828L140.875 92.6276L139.677 87.8847L139.774 90.3828ZM117.3 126.409L114.8 126.409V126.409L117.3 126.409ZM157.401 166.511L157.401 169.011H157.401V166.511ZM191.464 147.577L193.94 147.925L189.342 146.256L191.464 147.577ZM141.765 190.723V188.223C115.426 188.223 94.0745 166.871 94.0742 140.533L91.5742 140.533L89.0742 140.533C89.0745 169.633 112.665 193.223 141.765 193.223V190.723ZM91.5742 140.533H94.0742C94.0742 114.829 114.412 93.8736 139.872 92.8809L139.774 90.3828L139.677 87.8847C111.544 88.9816 89.0742 112.132 89.0742 140.533H91.5742ZM139.774 90.3828L138.674 88.138C124.541 95.0661 114.8 109.596 114.8 126.409L117.3 126.409L119.8 126.409C119.8 111.577 128.389 98.7484 140.875 92.6276L139.774 90.3828ZM117.3 126.409L114.8 126.409C114.8 149.937 133.873 169.011 157.401 169.011L157.401 166.511L157.401 164.011C136.635 164.011 119.8 147.176 119.8 126.409L117.3 126.409ZM157.401 166.511V169.011C172.677 169.011 186.07 160.967 193.586 148.899L191.464 147.577L189.342 146.256C182.7 156.92 170.878 164.011 157.401 164.011V166.511ZM191.464 147.577L188.988 147.229C185.734 170.396 165.829 188.223 141.765 188.223L141.765 190.723L141.765 193.223C168.357 193.222 190.344 173.526 193.94 147.925L191.464 147.577Z" fill="white"/>
<path d="M153.41 127.639C149.476 123.676 144.224 121.322 138.669 121.031C133.114 120.74 127.649 122.532 123.328 126.063C119.008 129.594 116.138 134.612 115.274 140.15C114.409 145.687 115.61 151.351 118.646 156.048L134.288 180.246C134.636 180.785 135.112 181.227 135.673 181.533C136.234 181.84 136.861 182 137.499 182C138.137 182 138.764 181.84 139.325 181.533C139.886 181.227 140.362 180.785 140.71 180.246L156.352 156.048C159.169 151.691 160.414 146.49 159.878 141.318C159.343 136.146 157.059 131.316 153.41 127.639ZM152.884 153.771L137.499 177.57L122.114 153.771C117.405 146.486 118.415 136.737 124.516 130.589C126.221 128.871 128.245 127.508 130.473 126.578C132.7 125.648 135.088 125.17 137.499 125.17C139.91 125.17 142.298 125.648 144.526 126.578C146.753 127.508 148.777 128.871 150.482 130.589C156.583 136.737 157.593 146.486 152.884 153.771Z" fill="#6188DB"/>
<path d="M138 135C136.418 135 134.871 135.499 133.555 136.433C132.24 137.366 131.214 138.694 130.609 140.247C130.003 141.8 129.845 143.509 130.154 145.158C130.462 146.807 131.224 148.322 132.343 149.51C133.462 150.699 134.887 151.509 136.439 151.837C137.991 152.165 139.6 151.996 141.061 151.353C142.523 150.71 143.773 149.62 144.652 148.222C145.531 146.825 146 145.181 146 143.5C145.998 141.246 145.154 139.086 143.654 137.492C142.154 135.899 140.121 135.003 138 135ZM138 147.75C137.209 147.75 136.436 147.501 135.778 147.034C135.12 146.567 134.607 145.903 134.304 145.126C134.002 144.35 133.923 143.495 134.077 142.671C134.231 141.846 134.612 141.089 135.172 140.495C135.731 139.9 136.444 139.496 137.22 139.332C137.996 139.168 138.8 139.252 139.531 139.574C140.262 139.895 140.886 140.44 141.326 141.139C141.765 141.838 142 142.659 142 143.5C141.999 144.627 141.577 145.707 140.827 146.504C140.077 147.301 139.06 147.749 138 147.75Z" fill="#6188DB" stroke="#6188DB" stroke-width="1.38596"/>
<defs>
<filter id="filter0_d_0_1" x="0" y="0" width="284" height="281" filterUnits="userSpaceOnUse" color-interpolation-filters="sRGB">
<feFlood flood-opacity="0" result="BackgroundImageFix"/>
<feColorMatrix in="SourceAlpha" type="matrix" values="0 0 0 0 0 0 0 0 0 0 0 0 0 0 0 0 0 0 127 0" result="hardAlpha"/>
<feOffset/>
<feGaussianBlur stdDeviation="40"/>
<feComposite in2="hardAlpha" operator="out"/>
<feColorMatrix type="matrix" values="0 0 0 0 0.623302 0 0 0 0 0.579645 0 0 0 0 0.953846 0 0 0 1 0"/>
<feBlend mode="normal" in2="BackgroundImageFix" result="effect1_dropShadow_0_1"/>
<feBlend mode="normal" in="SourceGraphic" in2="effect1_dropShadow_0_1" result="shape"/>
</filter>
<filter id="filter1_d_0_1" x="0" y="0" width="284" height="281" filterUnits="userSpaceOnUse" color-interpolation-filters="sRGB">
<feFlood flood-opacity="0" result="BackgroundImageFix"/>
<feColorMatrix in="SourceAlpha" type="matrix" values="0 0 0 0 0 0 0 0 0 0 0 0 0 0 0 0 0 0 127 0" result="hardAlpha"/>
<feOffset/>
<feGaussianBlur stdDeviation="40"/>
<feComposite in2="hardAlpha" operator="out"/>
<feColorMatrix type="matrix" values="0 0 0 0 0.623302 0 0 0 0 0.579645 0 0 0 0 0.953846 0 0 0 1 0"/>
<feBlend mode="normal" in2="BackgroundImageFix" result="effect1_dropShadow_0_1"/>
<feBlend mode="normal" in="SourceGraphic" in2="effect1_dropShadow_0_1" result="shape"/>
</filter>
</defs>
</svg>
